<svg width="91" height="20" viewBox="0 0 91 20" fill="none" xmlns="http://www.w3.org/2000/svg">
<path fill-rule="evenodd" clip-rule="evenodd" d="M9.75 0C12.298 0 15.028 0.546 16.978 2.314L14.56 4.758C13.312 3.562 11.466 2.964 9.75 2.964C5.98 2.964 3.432 5.876 3.432 9.542C3.432 13.338 5.824 16.38 9.776 16.38C11.154 16.38 12.766 16.146 14.066 15.418V11.076H10.296V8.112H17.342V17.524C14.898 18.824 12.324 19.344 9.75 19.344C4.03 19.344 0 15.444 0 9.75C0 3.952 3.952 0 9.75 0ZM26.592 6.084C30.544 6.084 32.442 9.074 32.442 12.844V13.728H22.926C23.134 15.522 24.486 16.692 26.28 16.692C27.684 16.692 28.75 16.094 29.634 15.002L31.87 16.692C30.518 18.356 28.724 19.188 26.592 19.188C22.77 19.188 19.806 16.536 19.806 12.636C19.806 8.762 22.77 6.084 26.592 6.084ZM22.926 11.388H29.322C29.296 9.438 27.97 8.424 26.124 8.424C24.278 8.424 23.16 9.62 22.926 11.388ZM41.692 6.084C45.41 6.084 46.242 8.97 46.242 10.894V18.876H43.122V12.402C43.122 9.906 42.316 8.892 40.834 8.892C38.832 8.892 37.974 10.348 37.974 12.012V18.876H34.854V6.396H37.818V8.398H37.87C38.624 6.76 40.054 6.084 41.692 6.084ZM55.44 6.084C59.392 6.084 61.29 9.074 61.29 12.844V13.728H51.774C51.982 15.522 53.334 16.692 55.128 16.692C56.532 16.692 57.598 16.094 58.482 15.002L60.718 16.692C59.366 18.356 57.572 19.188 55.44 19.188C51.618 19.188 48.654 16.536 48.654 12.636C48.654 8.762 51.618 6.084 55.44 6.084ZM51.774 11.388H58.17C58.144 9.438 56.818 8.424 54.972 8.424C53.126 8.424 52.008 9.62 51.774 11.388ZM67.966 6.084C69.916 6.084 71.528 6.76 72.438 7.982L70.358 9.854C69.734 8.996 68.954 8.58 67.914 8.58C66.9 8.58 66.094 9.1 66.094 9.906C66.094 10.92 67.498 11.102 69.058 11.466C70.982 11.908 72.828 12.61 72.828 15.184C72.828 17.81 70.514 19.188 67.42 19.188C65.496 19.188 63.858 18.694 62.584 17.264L64.664 15.314C65.73 16.484 66.562 16.848 67.628 16.848C68.772 16.848 69.708 16.276 69.708 15.418C69.708 14.222 68.2 14.014 66.614 13.65C64.924 13.26 62.974 12.662 62.974 10.114C62.974 7.072 65.834 6.084 67.966 6.084ZM76.332 0.286C77.476 0.286 78.36 1.092 78.36 2.158C78.36 3.276 77.45 4.03 76.332 4.03C75.214 4.03 74.356 3.172 74.356 2.158C74.356 1.144 75.214 0.286 76.332 0.286ZM74.798 6.396H77.918V18.876H74.798V6.396ZM85.27 6.084C87.22 6.084 88.832 6.76 89.742 7.982L87.662 9.854C87.038 8.996 86.258 8.58 85.218 8.58C84.204 8.58 83.398 9.1 83.398 9.906C83.398 10.92 84.802 11.102 86.362 11.466C88.286 11.908 90.132 12.61 90.132 15.184C90.132 17.81 87.818 19.188 84.724 19.188C82.8 19.188 81.162 18.694 79.888 17.264L81.968 15.314C83.034 16.484 83.866 16.848 84.932 16.848C86.076 16.848 87.012 16.276 87.012 15.418C87.012 14.222 85.504 14.014 83.918 13.65C82.228 13.26 80.278 12.662 80.278 10.114C80.278 7.072 83.138 6.084 85.27 6.084Z" fill="#111111"/>
</svg>
